<svg version="1.2" xmlns="http://www.w3.org/2000/svg" viewBox="0 0 120 24" width="120" height="24">
	<title>logo-svg</title>
	<style>
		.s0 { fill: #000000 } 
		.s1 { opacity: .4;fill: #50d38d } 
		.s2 { fill: #13af5b } 
	</style>
	<path id="Xerus" class="s0" aria-label="Xerus"  d="m2.1 19h2.9l3.7-5.5 3.7 5.5h2.9l-4.9-7.5 4.8-7.4h-2.9l-3.5 5.5h-0.1l-3.5-5.5h-3l4.8 7.4zm24.2-5.2c0-1.5-0.5-2.8-1.4-3.7-0.9-1-2-1.5-3.5-1.5-1.5 0-2.7 0.5-3.7 1.5-0.9 1-1.4 2.2-1.4 3.8 0 1.6 0.5 2.9 1.5 3.8 0.9 1 2.2 1.5 3.8 1.5 1.9 0 3.3-0.7 4.3-1.9l-1.6-1.4c-0.6 0.8-1.5 1.2-2.6 1.2-0.8 0-1.4-0.3-2-0.7-0.5-0.4-0.8-1-1-1.7h7.5c0-0.4 0.1-0.7 0.1-0.9zm-4.9-3.1c0.7 0 1.2 0.2 1.6 0.6 0.4 0.4 0.7 0.9 0.9 1.5h-5.1c0.1-0.6 0.4-1.1 0.9-1.5 0.5-0.4 1-0.6 1.7-0.6zm7.3 8.3h2.3v-4.8c0-0.9 0.3-1.6 0.8-2.2 0.5-0.5 1.2-0.8 2-0.8 0.2 0 0.4 0 0.8 0.1v-2.7h-0.3c-1.3 0-2.4 0.6-3.2 1.7h-0.1v-1.5h-2.3zm11.4 0.1c1.3 0 2.4-0.4 3.2-1.4v1.3h2.4v-10.3h-2.4v4.9c0 1.1-0.2 1.9-0.8 2.5-0.5 0.6-1.1 0.9-1.8 0.9-0.7 0-1.3-0.2-1.6-0.6-0.3-0.4-0.5-1.1-0.5-2.1v-5.6h-2.3v6.3c0 2.8 1.3 4.1 3.8 4.1zm11.8 0c1.3 0 2.2-0.2 2.9-0.8 0.6-0.6 0.9-1.4 0.9-2.3 0-0.9-0.3-1.6-1-2.1-0.3-0.3-1.2-0.6-2.5-1.2-1.1-0.4-1.6-0.8-1.6-1.2 0-0.3 0.1-0.5 0.3-0.7 0.3-0.1 0.5-0.2 0.8-0.2 0.9 0 1.8 0.4 2.6 1.1l1.1-1.8c-1-0.9-2.2-1.3-3.6-1.3-1 0-1.9 0.3-2.6 0.8-0.7 0.5-1 1.2-1 2.1 0 0.9 0.3 1.6 0.8 2.1 0.5 0.5 1.3 0.9 2.3 1.2 0.8 0.3 1.3 0.5 1.6 0.7 0.3 0.1 0.4 0.3 0.4 0.6 0 0.3-0.1 0.5-0.3 0.7-0.3 0.2-0.6 0.3-1.1 0.3-1.1 0-2.1-0.4-2.9-1.2l-1.2 1.8c1.1 0.9 2.5 1.4 4.1 1.4z"/>
	<path id="Layer" class="s1" d="m74 4c0-2.2 1.8-4 4-4h38c2.2 0 4 1.8 4 4v16c0 2.2-1.8 4-4 4h-38c-2.2 0-4-1.8-4-4z"/>
	<path id="Layer" fill-rule="evenodd" class="s2" d="m84.7 10.7q0.7-1.1 2.3-1.1 1.6 0 2.5 1.1 0.9 1 0.9 2.7 0 1.6-0.9 2.7-0.9 1.1-2.5 1.1-1.7 0-2.5-1.2v1h-1.5v-10.5h1.7zm-0.1 2.7q0 1 0.6 1.7 0.5 0.6 1.5 0.6 0.9 0 1.4-0.6 0.6-0.7 0.6-1.7 0-1-0.6-1.7-0.5-0.7-1.4-0.7-1 0-1.5 0.7-0.6 0.7-0.6 1.7z"/>
	<path id="Layer" fill-rule="evenodd" class="s2" d="m98.6 13.8h-5.5q0.1 0.9 0.6 1.4 0.5 0.5 1.4 0.5 0.6 0 1-0.2 0.5-0.3 0.7-0.8h1.7q-0.4 1.1-1.3 1.8-0.9 0.7-2.1 0.7-1.7 0-2.7-1.1-1-1.1-1-2.7 0-1.6 1-2.7 1-1.1 2.6-1.1 1.6 0 2.6 1 1 1.1 1 2.7zm-3.5-2.9q-0.8 0-1.3 0.5-0.6 0.4-0.7 1.2h3.9q-0.1-0.8-0.6-1.2-0.5-0.5-1.3-0.5z"/>
	<path id="Layer" class="s2" d="m103.4 15.5v1.5q-0.3 0-0.9 0-2.1 0-2.1-2.1v-3.8h-1.1v-1.4h1.1v-1.9h1.7v1.9h1.3v1.4h-1.3v3.6q0 0.9 0.8 0.9z"/>
	<path id="Layer" fill-rule="evenodd" class="s2" d="m106.9 17.2q-1.3 0-1.9-0.6-0.6-0.6-0.6-1.6 0-1.9 2.7-2.3l2.1-0.3v-0.1q0-1.4-1.5-1.4-1.4 0-1.6 1.1h-1.6q0.1-1 0.9-1.7 0.8-0.7 2.3-0.7 1.6 0 2.4 0.7 0.8 0.7 0.8 2v3.3q0 0.9 0.2 1.4h-1.6q0 0-0.1-0.1 0-0.1 0-0.3 0-0.3 0-0.6-0.7 1.2-2.5 1.2zm2.3-3.6l-1.9 0.3q-1.4 0.2-1.4 1 0 1 1.3 1 1 0 1.5-0.6 0.5-0.5 0.5-1.3z"/>
</svg>